# xmcd
#
# Track frame offsets:
#	150
#	19476
#	35994
#	52865
#	71262
#	89985
#	105777
#	122603
#	139496
#	154712
#	167837
#	181907
#	197669
#	213596
#	229078
#
# Disc length: 3235 seconds
#
# Revision: 1
# Processed by: cddbd v1.5.2PL0 Copyright (c) Steve Scherf et al.
# Submitted via: audiograbber 1.83.01
#
DISCID=d40ca10f
DTITLE=Semino Rossi - Die Liebe bleibt
DYEAR=2009
DGENRE=Country
TTITLE0=Bist Du allein in dieser Nacht
TTITLE1=Du bist die Sonne des Lebens
TTITLE2=Ein neues Glück
TTITLE3=Noches de Seda
TTITLE4=Frage nicht wohin die Liebe geht
TTITLE5=Wenn die weissen Rosen blühen
TTITLE6=Die Frau in Dir - macht einen Mann aus mir
TTITLE7=Für jeden der einsam ist
TTITLE8=Am Ende aller Tränen bleibt die Liebe
TTITLE9=Va Pensiero - Die Sehnsucht wird siegen
TTITLE10=Bailamos - lass mich mit Dir tanzen
TTITLE11=Kann nicht leben ohne Dich
TTITLE12=Vaya con Dios
TTITLE13=Viva la Vida - Viva el Amor
TTITLE14=Cielite Lindo
EXTD=
EXTT0=
EXTT1=
EXTT2=
EXTT3=
EXTT4=
EXTT5=
EXTT6=
EXTT7=
EXTT8=
EXTT9=
EXTT10=
EXTT11=
EXTT12=
EXTT13=
EXTT14=
PLAYORDER=
